<?xml version="1.0" encoding="UTF-8"?>
<svg id="svg4" width="571" height="857" version="1.1" viewBox="-10 0 571 857" xmlns="http://www.w3.org/2000/svg">
 <path id="path208" d="m561 250c0 158.97-142.84 189.66-151 312 16 9 26 27 26 45 0 13-5 27-14 36 9 9 14 23 14 36 0 18-9 35-25 45 4 8 8 17 8 26 0 36-29 54-61 54-15 32-47 53-82 53s-67-21-82-53c-32 0-61-18-61-54 0-9 3-18 7-26-16-10-25-27-25-45 0-13 5-27 14-36-9-9-14-23-14-36 0-18 10-36 26-45-8.1562-122.34-151-153.03-151-312 0-152 145-250 286-250s285 98 285 250z" fill="#808080"/>
 <path id="path206" d="m505 250c0-112-128-194-229-194s-230 82-230 194c0 120.43 136.03 146.81 151 304h157c14.971-157.19 151-183.57 151-304z" fill="#f1ebb2"/>
 <path id="path2" d="m401 250c0 9-9 18-18 18s-18-9-18-18c0-39-59-53-89-53-9 0-18-9-18-18s9-18 18-18c52 0 125 27 125 89z" fill="#fff"/>
</svg>
