<?xml version="1.0" encoding="UTF-8"?>
<!DOCTYPE svg  PUBLIC '-//W3C//DTD SVG 1.1//EN'  'http://www.w3.org/Graphics/SVG/1.1/DTD/svg11.dtd'>
<svg version="1.1" viewBox="-10 0 3235 1e3" xmlns="http://www.w3.org/2000/svg">
 <path d="m2e3 491c0-74-1-229-184-229h-100v454h100c182 0 184-153 184-225zm106 0c0 104-29 306-260 306h-196c-33 0-40-9-40-41v-540c0-33 8-40 40-40h196c82 0 260 31 260 315zm1089 282c0 24-9 24-29 24h-50c-24 0-29-1-41-19l-143-226-138 226c-11 18-19 19-35 19h-47c-24 0-24-9-24-36l192-293-178-256c0-21 0-36 22-36h51c24 0 29 2 39 18l118 182 116-184c10-16 24-16 39-16h43c14 0 24 0 24 34l-168 258zm-1713-15c0 30-7 39-39 39h-66c-32 0-45-6-57-36l-207-491v488c0 30-9 39-41 39h-13c-33 0-41-9-41-41v-540c0-33 9-40 41-40h66c32 0 43 6 55 36l209 490v-487c0-30 7-39 39-39h15c34 0 39 11 39 39v543zm-609 0c0 30-7 39-39 39h-30c-33 0-40-9-40-41v-540c0-33 8-40 40-40h30c34 0 39 11 39 39v543zm1729 3c0 30-6 39-38 39h-322c-33 0-40-8-40-40v-539c0-33 8-41 40-41h310c38 0 40 15 40 41 0 40-18 41-48 41h-231v181h216c20 0 39 0 39 36s-21 36-39 36h-216v201h245c28 0 44 2 44 38v7zm-1954-15c0 30-17 54-39 54h-543c-22 0-42-24-42-54 0-14 7-26 15-36l270-453h-243c-30 0-42-21-42-41 0-21 13-40 45-40h540c30 0 42 19 42 40 0 20-12 41-42 41h-240l267 453c8 10 12 22 12 36z" fill="#0000cc"/>
</svg>
