<?xml version="1.0" encoding="UTF-8"?>
<!DOCTYPE svg  PUBLIC '-//W3C//DTD SVG 1.1//EN'  'http://www.w3.org/Graphics/SVG/1.1/DTD/svg11.dtd'>
<svg version="1.1" viewBox="-10 0 5155 1e3" xmlns="http://www.w3.org/2000/svg">
 <path d="m5115 761c0 30-7 39-39 39h-321c-33 0-41-8-41-40v-542c0-33 9-40 41-40h309c38 0 40 14 40 40 0 40-18 40-48 40h-230v184h216c20 0 38 0 38 36s-20 36-38 36h-216v202h244c28 0 45 2 45 38v7zm-4500 39h-543c-21 0-39-18-39-46 0-12 4-28 12-44l270-536c4-9 16-16 30-16 10 0 21 4 27 16l270 536c6 12 9 26 9 40 0 26-10 50-36 50zm557-435c0 146-105 185-192 185h-125v211c0 30-7 39-39 39h-30c-33 0-40-8-40-40v-544c0-33 8-40 40-40h186c134 0 200 75 200 189zm-102 0c0-60-11-121-125-121h-91v244h91c116 0 125-66 125-123zm634 435h-38c-26 0-28-1-38-21l-134-263h-94v245c0 30-8 39-40 39h-26c-33 0-41-8-41-40v-544c0-33 9-40 41-40h178c146 0 212 75 212 174 0 100-68 143-128 159l135 258c0 12 0 33-27 33zm-82-448c0-57-17-108-122-108h-100v216h98c106 0 124-52 124-108zm624 409c0 30-8 39-40 39h-320c-33 0-41-8-41-40v-542c0-33 9-40 41-40h308c38 0 41 14 41 40 0 40-18 40-48 40h-231v184h216c20 0 39 0 39 36s-21 36-39 36h-216v202h244c28 0 46 2 46 38v7zm542 39h-30c-39 0-43-11-58-57l-30-97h-218l-37 118c-6 20-14 36-53 36h-13c-30 0-31-14-31-34v-4l174-553c10-33 34-33 50-33h53c18 0 41 1 51 33l174 557c0 21 0 34-32 34zm-139-222-89-308-86 308h175zm885 183c0 30-7 39-39 39h-15c-34 0-39-11-39-39v-486l-155 469c-10 33-22 40-56 40-22 0-48-2-58-36l-150-473v486c0 30-8 39-40 39h-14c-33 0-40-8-40-40v-544c0-33 8-40 40-40h56c18 0 44 1 54 34l153 476 153-472c8-21 12-38 52-38h59c34 0 39 11 39 39v546zm597-133c0 84-49 172-207 172h-202c-33 0-41-8-41-40v-544c0-33 9-40 41-40h180c152 0 205 77 205 159 0 72-48 122-123 138 112 20 147 89 147 155zm-123-290c0-94-114-94-134-94h-90v202h90c99 0 134-51 134-108zm20 288c0-122-120-122-146-122h-98v228h113c84 0 131-36 131-106zm577 134c0 27-3 40-39 40h-273c-33 0-41-8-41-40v-544c0-33 9-40 41-40h30c34 0 39 11 39 39v501h206c36 0 37 21 37 41v3z" fill="#0000cc"/>
</svg>
