<?xml version="1.0" encoding="UTF-8"?>
<!DOCTYPE svg  PUBLIC '-//W3C//DTD SVG 1.1//EN'  'http://www.w3.org/Graphics/SVG/1.1/DTD/svg11.dtd'>
<svg version="1.1" viewBox="-10 0 3964 1e3" xmlns="http://www.w3.org/2000/svg">
 <path d="m3924 761c0 30-7 39-39 39h-66c-32 0-45-6-57-36l-207-490v487c0 30-9 39-41 39h-13c-33 0-41-8-41-40v-540c0-33 9-41 41-41h66c32 0 43 6 55 36l209 491v-488c0-30 7-39 39-39h15c34 0 39 11 39 39v543zm-606 39h-38c-26 0-28-1-38-21l-134-263h-94v245c0 30-8 39-40 39h-26c-33 0-41-8-41-40v-544c0-33 9-40 41-40h178c146 0 212 75 212 174 0 100-68 143-128 159l135 258c0 12 0 33-27 33zm-82-448c0-57-17-108-122-108h-100v216h98c106 0 124-52 124-108zm-1024-136c0 34-8 41-40 41h-162v504c0 30-8 39-40 39h-30c-33 0-41-8-41-40v-503h-162c-32 0-42-7-42-41 0-33 9-40 41-40h438c38 0 38 14 38 40zm-1128 584h-37c-26 0-29-1-39-21l-134-263h-94v245c0 30-7 39-39 39h-27c-33 0-40-8-40-40v-544c0-33 8-40 40-40h178c146 0 212 75 212 174 0 100-68 143-128 159l136 258c0 12-1 33-28 33zm-82-448c0-57-17-108-122-108h-100v216h99c106 0 123-52 123-108zm624 409c0 30-7 39-39 39h-321c-33 0-40-8-40-40v-542c0-33 8-40 40-40h309c38 0 41 14 41 40 0 40-18 40-48 40h-232v184h216c20 0 40 0 40 36s-22 36-40 36h-216v202h245c28 0 45 2 45 38v7zm-1167-585c30 0 53 18 53 40v544c0 22-23 40-53 40-14 0-27-6-37-14l-376-271c-10-8-16-19-16-29s6-20 16-28l376-270c10-8 23-12 37-12zm2301 420c0 123-68 222-220 222s-224-96-224-222v-380c0-33 8-40 40-40h30c34 0 40 11 40 39v381c0 51 5 154 115 154 114 0 120-103 120-154v-381c0-30 7-39 39-39h21c34 0 39 11 39 39v381z" fill="#0000cc"/>
</svg>
