<?xml version="1.0" encoding="UTF-8"?>
<!DOCTYPE svg  PUBLIC '-//W3C//DTD SVG 1.1//EN'  'http://www.w3.org/Graphics/SVG/1.1/DTD/svg11.dtd'>
<svg version="1.1" viewBox="-10 0 2515 1e3" xmlns="http://www.w3.org/2000/svg">
 <path d="m2433 800h-543c-21 0-39-18-39-46 0-12 4-28 12-44l270-536c4-9 16-16 30-16 10 0 21 4 27 16l270 536c6 12 9 26 9 40 0 26-10 50-36 50zm-1885-584c0 34-9 41-41 41h-162v504c0 30-9 39-41 39h-30c-33 0-40-8-40-40v-503h-162c-32 0-42-7-42-41 0-33 8-40 40-40h438c38 0 40 14 40 40zm610 276c0 111-30 326-266 326-94 0-265-40-265-326 0-114 29-334 265-334 84 0 266 34 266 334zm-110-14c0-60 0-257-156-257-36 0-155 1-155 257 0 190 77 284 155 284s156-94 156-284zm658-113c0 146-105 185-192 185h-125v211c0 30-7 39-39 39h-30c-33 0-40-8-40-40v-544c0-33 8-40 40-40h186c134 0 200 75 200 189zm-104 0c0-60-9-121-123-121h-93v244h93c116 0 123-66 123-123z" fill="#0000cc"/>
</svg>
