<?xml version="1.0" encoding="UTF-8"?>
<svg id="svg4" width="1e3" height="928" version="1.1" viewBox="-10 0 1e3 928" xmlns="http://www.w3.org/2000/svg">
 <path id="path851" d="m552 37 429 786c6 11 9 23 9 34 0 37-30 71-71 71h-858c-41 0-71-34-71-71 0-11 3-23 9-34l429-786c13-24 38-37 62-37s49 13 62 37z"/>
 <path id="path2" d="m542 127c-23-42-37-63-52-63s-29 21-52 63l-360 661c-17 31-26 51-26 64 0 21 23 24 78 24h720c55 0 78-3 78-24 0-13-9-33-26-64z" fill="#f6ff56"/>
 <path id="path849" d="m536 608c-1 7-9 13-19 13h-55c-11 0-19-6-19-13l-9-291c0-3 1-8 5-11 3-3 9-6 14-6h74c5 0 11 3 14 6 4 3 5 7 5 10z"/>
 <path id="path847" d="m537 781c0 10-7 19-17 19h-60c-10 0-17-9-17-19v-58c0-10 7-18 17-18h60c10 0 17 8 17 18z"/>
</svg>
